<svg xmlns="http://www.w3.org/2000/svg" width="24" height="24" viewBox="0 0 24 24">
  <path fill="currentColor" d="M12 2.163c3.204 0 3.584.012 4.85.07 3.252.15 4.771 1.691 4.921 4.921.058 1.266.069 1.646.069 4.85s-.012 3.584-.069 4.85c-.15 3.231-1.665 4.771-4.921 4.921-1.266.058-1.646.069-4.85.069s-3.584-.012-4.85-.069c-3.257-.15-4.771-1.69-4.921-4.921C2.175 15.588 2.163 15.208 2.163 12s.012-3.584.069-4.85c.15-3.231 1.665-4.771 4.921-4.921C8.417 2.175 8.797 2.163 12 2.163m0-2.163C8.741 0 8.332.011 7.052.072 3.509.23.23 3.509.072 7.052.011 8.332 0 8.741 0 12s.011 3.668.072 4.948c.158 3.543 3.437 6.822 6.98 6.98C8.332 23.989 8.741 24 12 24s3.668-.011 4.948-.072c3.543-.158 6.822-3.437 6.98-6.98.061-1.28.072-1.689.072-4.948s-.011-3.668-.072-4.948c-.158-3.543-3.437-6.822-6.98-6.98C15.668.011 15.259 0 12 0z"/>
  <path fill="currentColor" d="M12 5.838a6.162 6.162 0 1 0 0 12.324 6.162 6.162 0 0 0 0-12.324m0 10.162a3.999 3.999 0 1 1 0-7.998 3.999 3.999 0 0 1 0 7.998M18.406 4.594a1.44 1.44 0 1 0 0 2.88 1.44 1.44 0 0 0 0-2.88"/>
</svg>